{
	"asset":{
		"generator":"Khronos glTF Blender I/O v3.5.30",
		"version":"2.0"
	},
	"scene":0,
	"scenes":[
		{
			"name":"Scene",
			"nodes":[
				0
			]
		}
	],
	"nodes":[
		{
			"mesh":0,
			"name":"Torus"
		}
	],
	"meshes":[
		{
			"name":"Torus",
			"primitives":[
				{
					"attributes":{
						"POSITION":0,
						"TEXCOORD_0":1,
						"NORMAL":2
					},
					"indices":3
				}
			]
		}
	],
	"accessors":[
		{
			"bufferView":0,
			"componentType":5126,
			"count":1398,
			"max":[
				0.46765023469924927,
				0.4621681869029999,
				0.20832937955856323
			],
			"min":[
				-1.1176265478134155,
				-0.5254697799682617,
				-0.25621435046195984
			],
			"type":"VEC3"
		},
		{
			"bufferView":1,
			"componentType":5126,
			"count":1398,
			"type":"VEC2"
		},
		{
			"bufferView":2,
			"componentType":5126,
			"count":1398,
			"type":"VEC3"
		},
		{
			"bufferView":3,
			"componentType":5123,
			"count":1728,
			"type":"SCALAR"
		}
	],
	"bufferViews":[
		{
			"buffer":0,
			"byteLength":16776,
			"byteOffset":0,
			"target":34962
		},
		{
			"buffer":0,
			"byteLength":11184,
			"byteOffset":16776,
			"target":34962
		},
		{
			"buffer":0,
			"byteLength":16776,
			"byteOffset":27960,
			"target":34962
		},
		{
			"buffer":0,
			"byteLength":3456,
			"byteOffset":44736,
			"target":34963
		}
	],
	"buffers":[
		{
			"byteLength":48192,
			"uri":"data:application/octet-stream;base64,"
		}
	]
}
